<svg xmlns="http://www.w3.org/2000/svg" xmlns:xlink="http://www.w3.org/1999/xlink" width="500" zoomAndPan="magnify" viewBox="0 0 375 374.999991" height="500" preserveAspectRatio="xMidYMid meet" version="1.0"><defs><g/></defs><rect x="-37.5" width="450" fill="#ffffff" y="-37.499999" height="449.999989" fill-opacity="1"/><rect x="-37.5" width="450" fill="#0097b2" y="-37.499999" height="449.999989" fill-opacity="1"/><path stroke-linecap="butt" transform="matrix(-1.221159, -1.595459, 1.595459, -1.221159, 219.745874, 170.521498)" fill="none" stroke-linejoin="miter" d="M -0.0000150587 2.499897 L 16.726921 2.500193 " stroke="#d08989" stroke-width="5" stroke-opacity="1" stroke-miterlimit="4"/><path stroke-linecap="butt" transform="matrix(-1.230978, -1.587896, 1.587896, -1.230978, 217.705389, 168.764432)" fill="none" stroke-linejoin="miter" d="M -0.00000317939 0.500415 L 25.202643 0.500706 " stroke="#0097b2" stroke-width="1" stroke-opacity="1" stroke-miterlimit="4"/><g fill="#ffffff" fill-opacity="1"><g transform="translate(23.760278, 224.831163)"><g><path d="M 1.09375 -90.546875 L 1.09375 -113.171875 L 80.671875 -113.171875 L 80.671875 -90.546875 L 53.78125 -90.546875 L 53.78125 0 L 27.984375 0 L 27.984375 -90.546875 Z M 1.09375 -90.546875 "/></g></g></g><g fill="#d08989" fill-opacity="1"><g transform="translate(92.636751, 224.831163)"><g><path d="M 13.03125 -8.703125 C 6.445312 -15.890625 3.15625 -24.695312 3.15625 -35.125 C 3.15625 -45.550781 6.445312 -54.375 13.03125 -61.59375 C 19.613281 -68.820312 27.984375 -72.4375 38.140625 -72.4375 C 47.460938 -72.4375 55.144531 -69.507812 61.1875 -63.65625 L 61.1875 -70.375 L 85.46875 -70.375 L 85.46875 0 L 61.453125 0 L 61.453125 -7.953125 L 61.1875 -7.953125 C 55.144531 -1.273438 47.460938 2.0625 38.140625 2.0625 C 27.984375 2.0625 19.613281 -1.523438 13.03125 -8.703125 Z M 33.671875 -47.046875 C 30.523438 -43.941406 28.953125 -39.960938 28.953125 -35.109375 C 28.953125 -30.265625 30.457031 -26.3125 33.46875 -23.25 C 36.488281 -20.1875 40.46875 -18.65625 45.40625 -18.65625 C 50.164062 -18.65625 54.078125 -20.207031 57.140625 -23.3125 C 60.203125 -26.425781 61.734375 -30.363281 61.734375 -35.125 C 61.734375 -39.96875 60.15625 -43.941406 57 -47.046875 C 53.84375 -50.160156 49.976562 -51.71875 45.40625 -51.71875 C 40.738281 -51.71875 36.828125 -50.160156 33.671875 -47.046875 Z M 33.671875 -47.046875 "/></g></g></g><g fill="#ffffff" fill-opacity="1"><g transform="translate(173.442603, 224.831163)"><g><path d="M 89.71875 0 L 60.359375 0 L 44.859375 -19.890625 L 29.359375 0 L 0 0 L 30.046875 -36.765625 L 4.25 -70.375 L 32.65625 -70.375 L 44.859375 -54.046875 L 57.0625 -70.375 L 85.46875 -70.375 L 59.671875 -36.765625 Z M 89.71875 0 "/></g></g></g><g fill="#d08989" fill-opacity="1"><g transform="translate(250.26154, 224.831163)"><g><path d="M 10.5625 -109.609375 C 13.394531 -112.441406 16.773438 -113.859375 20.703125 -113.859375 C 24.640625 -113.859375 28.023438 -112.441406 30.859375 -109.609375 C 33.703125 -106.773438 35.125 -103.390625 35.125 -99.453125 C 35.125 -95.523438 33.703125 -92.144531 30.859375 -89.3125 C 28.023438 -86.476562 24.640625 -85.0625 20.703125 -85.0625 C 16.773438 -85.0625 13.394531 -86.476562 10.5625 -89.3125 C 7.726562 -92.144531 6.3125 -95.523438 6.3125 -99.453125 C 6.3125 -103.390625 7.726562 -106.773438 10.5625 -109.609375 Z M 8.234375 -70.375 L 8.234375 0 L 32.515625 0 L 32.515625 -70.375 Z M 8.234375 -70.375 "/></g></g></g><g fill="#000000" fill-opacity="1"><g transform="translate(278.797863, 224.831163)"><g/></g></g><g fill="#ffffff" fill-opacity="1"><g transform="translate(303.347271, 224.831163)"><g><path d="M 23.875 -29.359375 C 28.257812 -29.359375 31.984375 -27.828125 35.046875 -24.765625 C 38.109375 -21.703125 39.640625 -17.972656 39.640625 -13.578125 C 39.640625 -9.285156 38.109375 -5.601562 35.046875 -2.53125 C 31.984375 0.53125 28.257812 2.0625 23.875 2.0625 C 19.570312 2.0625 15.890625 0.53125 12.828125 -2.53125 C 9.765625 -5.601562 8.234375 -9.285156 8.234375 -13.578125 C 8.234375 -17.972656 9.765625 -21.703125 12.828125 -24.765625 C 15.890625 -27.828125 19.570312 -29.359375 23.875 -29.359375 Z M 23.875 -29.359375 "/></g></g></g><g fill="#ffffff" fill-opacity="1"><g transform="translate(102.275297, 262.002919)"><g><path d="M 14.828125 -19.328125 C 15.210938 -19.328125 15.53125 -19.210938 15.78125 -18.984375 C 16.03125 -18.753906 16.15625 -18.445312 16.15625 -18.0625 C 16.15625 -17.675781 16.03125 -17.367188 15.78125 -17.140625 C 15.53125 -16.921875 15.210938 -16.8125 14.828125 -16.8125 L 9.90625 -16.8125 L 9.90625 -1.328125 C 9.90625 -0.953125 9.769531 -0.632812 9.5 -0.375 C 9.238281 -0.125 8.90625 0 8.5 0 C 8.09375 0 7.753906 -0.125 7.484375 -0.375 C 7.222656 -0.632812 7.09375 -0.953125 7.09375 -1.328125 L 7.09375 -16.8125 L 2.203125 -16.8125 C 1.816406 -16.8125 1.5 -16.925781 1.25 -17.15625 C 1.007812 -17.382812 0.890625 -17.691406 0.890625 -18.078125 C 0.890625 -18.453125 1.007812 -18.753906 1.25 -18.984375 C 1.5 -19.210938 1.816406 -19.328125 2.203125 -19.328125 Z M 14.828125 -19.328125 "/></g></g></g><g fill="#ffffff" fill-opacity="1"><g transform="translate(137.303763, 262.002919)"><g><path d="M 13.6875 -14.65625 C 14.082031 -14.65625 14.398438 -14.53125 14.640625 -14.28125 C 14.890625 -14.039062 15.015625 -13.71875 15.015625 -13.3125 L 15.015625 -1.328125 C 15.015625 -0.953125 14.890625 -0.632812 14.640625 -0.375 C 14.398438 -0.125 14.082031 0 13.6875 0 C 13.300781 0 12.988281 -0.125 12.75 -0.375 C 12.507812 -0.625 12.390625 -0.941406 12.390625 -1.328125 L 12.390625 -2.046875 C 11.910156 -1.398438 11.253906 -0.847656 10.421875 -0.390625 C 9.597656 0.0546875 8.710938 0.28125 7.765625 0.28125 C 6.503906 0.28125 5.363281 -0.0390625 4.34375 -0.6875 C 3.320312 -1.332031 2.519531 -2.226562 1.9375 -3.375 C 1.363281 -4.53125 1.078125 -5.828125 1.078125 -7.265625 C 1.078125 -8.703125 1.363281 -9.992188 1.9375 -11.140625 C 2.519531 -12.285156 3.316406 -13.179688 4.328125 -13.828125 C 5.347656 -14.472656 6.460938 -14.796875 7.671875 -14.796875 C 8.648438 -14.796875 9.554688 -14.59375 10.390625 -14.1875 C 11.234375 -13.78125 11.898438 -13.265625 12.390625 -12.640625 L 12.390625 -13.3125 C 12.390625 -13.695312 12.507812 -14.015625 12.75 -14.265625 C 12.988281 -14.523438 13.300781 -14.65625 13.6875 -14.65625 Z M 8.0625 -2.15625 C 8.925781 -2.15625 9.691406 -2.375 10.359375 -2.8125 C 11.035156 -3.257812 11.5625 -3.867188 11.9375 -4.640625 C 12.3125 -5.410156 12.5 -6.285156 12.5 -7.265625 C 12.5 -8.222656 12.3125 -9.085938 11.9375 -9.859375 C 11.5625 -10.628906 11.035156 -11.238281 10.359375 -11.6875 C 9.691406 -12.144531 8.925781 -12.375 8.0625 -12.375 C 7.195312 -12.375 6.425781 -12.148438 5.75 -11.703125 C 5.082031 -11.265625 4.554688 -10.65625 4.171875 -9.875 C 3.796875 -9.101562 3.609375 -8.234375 3.609375 -7.265625 C 3.609375 -6.285156 3.796875 -5.410156 4.171875 -4.640625 C 4.554688 -3.867188 5.082031 -3.257812 5.75 -2.8125 C 6.425781 -2.375 7.195312 -2.15625 8.0625 -2.15625 Z M 8.0625 -2.15625 "/></g></g></g><g fill="#ffffff" fill-opacity="1"><g transform="translate(172.249455, 262.002919)"><g><path d="M 12.484375 -2.046875 C 12.679688 -1.828125 12.78125 -1.566406 12.78125 -1.265625 C 12.78125 -0.898438 12.640625 -0.582031 12.359375 -0.3125 C 12.085938 -0.0507812 11.785156 0.078125 11.453125 0.078125 C 11.035156 0.078125 10.675781 -0.113281 10.375 -0.5 L 6.6875 -5.15625 L 3.03125 -0.5 C 2.90625 -0.3125 2.75 -0.171875 2.5625 -0.078125 C 2.382812 0.015625 2.191406 0.0625 1.984375 0.0625 C 1.671875 0.0625 1.378906 -0.0507812 1.109375 -0.28125 C 0.847656 -0.519531 0.71875 -0.796875 0.71875 -1.109375 C 0.71875 -1.429688 0.816406 -1.707031 1.015625 -1.9375 L 5.15625 -7.09375 L 0.90625 -12.453125 C 0.726562 -12.691406 0.640625 -12.945312 0.640625 -13.21875 C 0.640625 -13.59375 0.769531 -13.90625 1.03125 -14.15625 C 1.300781 -14.414062 1.609375 -14.546875 1.953125 -14.546875 C 2.398438 -14.546875 2.757812 -14.363281 3.03125 -14 L 6.8125 -9.21875 L 10.375 -13.96875 C 10.65625 -14.351562 11.007812 -14.546875 11.4375 -14.546875 C 11.78125 -14.546875 12.070312 -14.429688 12.3125 -14.203125 C 12.550781 -13.972656 12.671875 -13.703125 12.671875 -13.390625 C 12.671875 -13.035156 12.570312 -12.75 12.375 -12.53125 L 8.28125 -7.375 Z M 12.484375 -2.046875 "/></g></g></g><g fill="#ffffff" fill-opacity="1"><g transform="translate(203.663054, 262.002919)"><g><path d="M 4.4375 -1.328125 C 4.4375 -0.953125 4.3125 -0.632812 4.0625 -0.375 C 3.820312 -0.125 3.507812 0 3.125 0 C 2.75 0 2.4375 -0.125 2.1875 -0.375 C 1.945312 -0.632812 1.828125 -0.953125 1.828125 -1.328125 L 1.828125 -13.28125 C 1.828125 -13.644531 1.945312 -13.957031 2.1875 -14.21875 C 2.4375 -14.476562 2.75 -14.609375 3.125 -14.609375 C 3.507812 -14.609375 3.820312 -14.476562 4.0625 -14.21875 C 4.3125 -13.957031 4.4375 -13.644531 4.4375 -13.28125 Z M 3.109375 -16.421875 C 2.578125 -16.421875 2.195312 -16.515625 1.96875 -16.703125 C 1.738281 -16.898438 1.625 -17.210938 1.625 -17.640625 L 1.625 -18.078125 C 1.625 -18.523438 1.75 -18.835938 2 -19.015625 C 2.25 -19.203125 2.628906 -19.296875 3.140625 -19.296875 C 3.648438 -19.296875 4.019531 -19.195312 4.25 -19 C 4.488281 -18.8125 4.609375 -18.503906 4.609375 -18.078125 L 4.609375 -17.640625 C 4.609375 -17.203125 4.488281 -16.890625 4.25 -16.703125 C 4.007812 -16.515625 3.628906 -16.421875 3.109375 -16.421875 Z M 3.109375 -16.421875 "/></g></g></g><g fill="#ffffff" fill-opacity="1"><g transform="translate(227.929664, 262.002919)"><g><path d="M 8.140625 -18.0625 C 7.535156 -18.0625 7.085938 -17.875 6.796875 -17.5 C 6.515625 -17.132812 6.375 -16.6875 6.375 -16.15625 L 6.375 -14.21875 L 9.109375 -14.21875 C 9.472656 -14.21875 9.769531 -14.101562 10 -13.875 C 10.238281 -13.644531 10.359375 -13.351562 10.359375 -13 C 10.359375 -12.65625 10.238281 -12.367188 10 -12.140625 C 9.769531 -11.921875 9.472656 -11.8125 9.109375 -11.8125 L 6.375 -11.8125 L 6.375 -1.328125 C 6.375 -0.953125 6.25 -0.632812 6 -0.375 C 5.75 -0.125 5.429688 0 5.046875 0 C 4.679688 0 4.375 -0.125 4.125 -0.375 C 3.875 -0.632812 3.75 -0.953125 3.75 -1.328125 L 3.75 -11.8125 L 2.046875 -11.8125 C 1.691406 -11.8125 1.394531 -11.921875 1.15625 -12.140625 C 0.914062 -12.367188 0.796875 -12.65625 0.796875 -13 C 0.796875 -13.351562 0.914062 -13.644531 1.15625 -13.875 C 1.394531 -14.101562 1.691406 -14.21875 2.046875 -14.21875 L 3.75 -14.21875 L 3.75 -16.15625 C 3.75 -17.4375 4.160156 -18.457031 4.984375 -19.21875 C 5.816406 -19.988281 6.988281 -20.375 8.5 -20.375 C 9.125 -20.375 9.675781 -20.257812 10.15625 -20.03125 C 10.632812 -19.800781 10.875 -19.457031 10.875 -19 C 10.875 -18.644531 10.769531 -18.351562 10.5625 -18.125 C 10.351562 -17.894531 10.097656 -17.78125 9.796875 -17.78125 C 9.722656 -17.78125 9.519531 -17.816406 9.1875 -17.890625 C 8.789062 -18.003906 8.441406 -18.0625 8.140625 -18.0625 Z M 8.140625 -18.0625 "/></g></g></g><g fill="#ffffff" fill-opacity="1"><g transform="translate(256.694194, 262.002919)"><g><path d="M 12.734375 -14.609375 C 13.117188 -14.609375 13.429688 -14.476562 13.671875 -14.21875 C 13.921875 -13.957031 14.046875 -13.644531 14.046875 -13.28125 L 14.046875 -1.359375 C 14.046875 0.941406 13.410156 2.660156 12.140625 3.796875 C 10.878906 4.941406 9.207031 5.515625 7.125 5.515625 C 6.445312 5.515625 5.773438 5.453125 5.109375 5.328125 C 4.441406 5.203125 3.898438 5.023438 3.484375 4.796875 C 2.796875 4.484375 2.453125 4.0625 2.453125 3.53125 C 2.453125 3.4375 2.472656 3.316406 2.515625 3.171875 C 2.617188 2.859375 2.769531 2.617188 2.96875 2.453125 C 3.175781 2.285156 3.410156 2.203125 3.671875 2.203125 C 3.816406 2.203125 3.957031 2.234375 4.09375 2.296875 C 4.65625 2.546875 5.15625 2.742188 5.59375 2.890625 C 6.039062 3.046875 6.5625 3.125 7.15625 3.125 C 10.007812 3.125 11.4375 1.660156 11.4375 -1.265625 L 11.4375 -1.828125 C 10.9375 -1.160156 10.296875 -0.640625 9.515625 -0.265625 C 8.734375 0.0976562 7.832031 0.28125 6.8125 0.28125 C 5.289062 0.28125 4.097656 -0.207031 3.234375 -1.1875 C 2.378906 -2.164062 1.953125 -3.445312 1.953125 -5.03125 L 1.953125 -13.28125 C 1.953125 -13.664062 2.070312 -13.984375 2.3125 -14.234375 C 2.550781 -14.484375 2.867188 -14.609375 3.265625 -14.609375 C 3.648438 -14.609375 3.960938 -14.476562 4.203125 -14.21875 C 4.453125 -13.957031 4.578125 -13.644531 4.578125 -13.28125 L 4.578125 -5.71875 C 4.578125 -4.5 4.84375 -3.597656 5.375 -3.015625 C 5.914062 -2.441406 6.726562 -2.15625 7.8125 -2.15625 C 8.863281 -2.15625 9.726562 -2.484375 10.40625 -3.140625 C 11.09375 -3.804688 11.4375 -4.664062 11.4375 -5.71875 L 11.4375 -13.28125 C 11.4375 -13.664062 11.550781 -13.984375 11.78125 -14.234375 C 12.019531 -14.484375 12.335938 -14.609375 12.734375 -14.609375 Z M 12.734375 -14.609375 "/></g></g></g><path stroke-linecap="butt" transform="matrix(1.203616, -1.608735, 1.608735, 1.203616, 213.693096, 158.427954)" fill="none" stroke-linejoin="miter" d="M -0.000228508 2.500115 L 23.45099 2.500307 " stroke="#d08989" stroke-width="5" stroke-opacity="1" stroke-miterlimit="4"/><path stroke-linecap="butt" transform="matrix(1.26265, -1.562829, 1.562829, 1.26265, 166.302298, 232.330312)" fill="none" stroke-linejoin="miter" d="M -0.000255183 0.49913 L 68.500304 0.499102 " stroke="#0097b2" stroke-width="1" stroke-opacity="1" stroke-miterlimit="4"/><path stroke-linecap="butt" transform="matrix(0.0472136, -2.008604, 2.008604, 0.0472136, 184.026657, 228.404325)" fill="none" stroke-linejoin="miter" d="M -0.000870194 0.500165 L 52.132272 0.499937 " stroke="#0097b2" stroke-width="1" stroke-opacity="1" stroke-miterlimit="4"/><path stroke-linecap="butt" transform="matrix(-0.647014, -1.902128, 1.902128, -0.647014, 63.973476, 228.134356)" fill="none" stroke-linejoin="miter" d="M -0.00097671 0.50032 L 64.072137 0.49988 " stroke="#0097b2" stroke-width="1" stroke-opacity="1" stroke-miterlimit="4"/><path stroke-linecap="butt" transform="matrix(0.625609, -1.909275, 1.909275, 0.625609, 64.767108, 228.109291)" fill="none" stroke-linejoin="miter" d="M 0.000245277 0.500396 L 64.154759 0.50095 " stroke="#0097b2" stroke-width="1" stroke-opacity="1" stroke-miterlimit="4"/></svg>