<svg xmlns="http://www.w3.org/2000/svg" xmlns:xlink="http://www.w3.org/1999/xlink" width="500" zoomAndPan="magnify" viewBox="0 0 375 374.999991" height="500" preserveAspectRatio="xMidYMid meet" version="1.0"><defs><g/></defs><rect x="-37.5" width="450" fill="#ffffff" y="-37.499999" height="449.999989" fill-opacity="1"/><rect x="-37.5" width="450" fill="#0097b2" y="-37.499999" height="449.999989" fill-opacity="1"/><path stroke-linecap="butt" transform="matrix(-0.459512, -0.592746, 0.592746, -0.459512, 198.775376, 177.814325)" fill="none" stroke-linejoin="miter" d="M -0.000268274 0.497368 L 25.202858 0.502467 " stroke="#f1efe7" stroke-width="1" stroke-opacity="1" stroke-miterlimit="4"/><g fill="#ffffff" fill-opacity="1"><g transform="translate(145.743267, 245.468168)"><g><path d="M 1.125 -92.4375 L 1.125 -115.546875 L 82.359375 -115.546875 L 82.359375 -92.4375 L 54.90625 -92.4375 L 54.90625 0 L 28.578125 0 L 28.578125 -92.4375 Z M 1.125 -92.4375 "/></g></g></g><path stroke-linecap="butt" transform="matrix(-0.214937, -0.718542, 0.718542, -0.214937, 170.451337, 260.624748)" fill="none" stroke-linejoin="miter" d="M 0.00248482 2.498521 L 205.974629 2.500625 " stroke="#0097b2" stroke-width="5" stroke-opacity="1" stroke-miterlimit="4"/><path stroke-linecap="butt" transform="matrix(0.235411, -0.712097, 0.712097, 0.235411, 185.718669, 248.762561)" fill="none" stroke-linejoin="miter" d="M -0.000143002 2.501577 L 196.316974 2.501001 " stroke="#0097b2" stroke-width="5" stroke-opacity="1" stroke-miterlimit="4"/><path stroke-linecap="butt" transform="matrix(-0.231915, -0.713243, 0.713243, -0.231915, 185.716267, 249.931976)" fill="none" stroke-linejoin="miter" d="M 0.000533561 2.501052 L 196.002857 2.499552 " stroke="#0097b2" stroke-width="5" stroke-opacity="1" stroke-miterlimit="4"/><path stroke-linecap="butt" transform="matrix(0, -0.75, 0.75, 0, 185.623807, 249.35143)" fill="none" stroke-linejoin="miter" d="M -0.000176632 2.501591 L 167.020668 2.501591 " stroke="#0097b2" stroke-width="5" stroke-opacity="1" stroke-miterlimit="4"/></svg>