<svg xmlns="http://www.w3.org/2000/svg" xmlns:xlink="http://www.w3.org/1999/xlink" width="500" zoomAndPan="magnify" viewBox="0 0 375 374.999991" height="500" preserveAspectRatio="xMidYMid meet" version="1.0"><defs><g/></defs><rect x="-37.5" width="450" fill="#ffffff" y="-37.499999" height="449.999989" fill-opacity="1"/><rect x="-37.5" width="450" fill="#f1efe7" y="-37.499999" height="449.999989" fill-opacity="1"/><path stroke-linecap="butt" transform="matrix(-0.459512, -0.592746, 0.592746, -0.459512, 198.775376, 177.814325)" fill="none" stroke-linejoin="miter" d="M -0.000268274 0.497368 L 25.202858 0.502467 " stroke="#f1efe7" stroke-width="1" stroke-opacity="1" stroke-miterlimit="4"/><g fill="#ffffff" fill-opacity="1"><g transform="translate(130.493262, 245.468168)"><g><path d="M 1.125 -92.4375 L 1.125 -115.546875 L 82.359375 -115.546875 L 82.359375 -92.4375 L 54.90625 -92.4375 L 54.90625 0 L 28.578125 0 L 28.578125 -92.4375 Z M 1.125 -92.4375 "/></g></g></g><path stroke-linecap="butt" transform="matrix(0.237207, -0.7115, 0.7115, 0.237207, 187.14323, 199.739284)" fill="none" stroke-linejoin="miter" d="M -0.00145212 0.501918 L 63.942446 0.502002 " stroke="#f1efe7" stroke-width="1" stroke-opacity="1" stroke-miterlimit="4"/><path stroke-linecap="butt" transform="matrix(-0.214937, -0.718542, 0.718542, -0.214937, 170.451337, 260.624748)" fill="none" stroke-linejoin="miter" d="M 0.00248482 2.498521 L 205.974629 2.500625 " stroke="#f1efe7" stroke-width="5" stroke-opacity="1" stroke-miterlimit="4"/><path stroke-linecap="butt" transform="matrix(0.212946, -0.719134, 0.719134, 0.212946, 170.450341, 259.55424)" fill="none" stroke-linejoin="miter" d="M 0.00154365 2.502079 L 208.584538 2.498111 " stroke="#f1efe7" stroke-width="5" stroke-opacity="1" stroke-miterlimit="4"/><path stroke-linecap="butt" transform="matrix(0, -0.75, 0.75, 0, 170.370608, 290.94455)" fill="none" stroke-linejoin="miter" d="M -0.00101601 2.500648 L 262.478168 2.500648 " stroke="#f1efe7" stroke-width="5" stroke-opacity="1" stroke-miterlimit="4"/></svg>