<svg xmlns="http://www.w3.org/2000/svg" xmlns:xlink="http://www.w3.org/1999/xlink" width="500" zoomAndPan="magnify" viewBox="0 0 375 374.999991" height="500" preserveAspectRatio="xMidYMid meet" version="1.0"><defs><g/></defs><rect x="-37.5" width="450" fill="#ffffff" y="-37.499999" height="449.999989" fill-opacity="1"/><rect x="-37.5" width="450" fill="#0097b2" y="-37.499999" height="449.999989" fill-opacity="1"/><path stroke-linecap="butt" transform="matrix(-0.455847, -0.59557, 0.59557, -0.455847, 199.537067, 178.470281)" fill="none" stroke-linejoin="miter" d="M -0.00254511 2.500324 L 16.727402 2.502506 " stroke="#d08989" stroke-width="5" stroke-opacity="1" stroke-miterlimit="4"/><path stroke-linecap="butt" transform="matrix(-0.459512, -0.592746, 0.592746, -0.459512, 198.775376, 177.814325)" fill="none" stroke-linejoin="miter" d="M -0.000268274 0.497368 L 25.202858 0.502467 " stroke="#0097b2" stroke-width="1" stroke-opacity="1" stroke-miterlimit="4"/><g fill="#ffffff" fill-opacity="1"><g transform="translate(126.377508, 198.743541)"><g><path d="M 0.40625 -33.796875 L 0.40625 -42.25 L 30.109375 -42.25 L 30.109375 -33.796875 L 20.078125 -33.796875 L 20.078125 0 L 10.453125 0 L 10.453125 -33.796875 Z M 0.40625 -33.796875 "/></g></g></g><g fill="#d08989" fill-opacity="1"><g transform="translate(152.088444, 198.743541)"><g><path d="M 4.859375 -3.25 C 2.398438 -5.925781 1.171875 -9.207031 1.171875 -13.09375 C 1.171875 -16.988281 2.398438 -20.285156 4.859375 -22.984375 C 7.316406 -25.679688 10.441406 -27.03125 14.234375 -27.03125 C 17.710938 -27.03125 20.582031 -25.941406 22.84375 -23.765625 L 22.84375 -26.265625 L 31.90625 -26.265625 L 31.90625 0 L 22.9375 0 L 22.9375 -2.96875 L 22.84375 -2.96875 C 20.582031 -0.476562 17.710938 0.765625 14.234375 0.765625 C 10.441406 0.765625 7.316406 -0.570312 4.859375 -3.25 Z M 12.5625 -17.5625 C 11.382812 -16.40625 10.796875 -14.921875 10.796875 -13.109375 C 10.796875 -11.296875 11.359375 -9.816406 12.484375 -8.671875 C 13.617188 -7.535156 15.109375 -6.96875 16.953125 -6.96875 C 18.722656 -6.96875 20.179688 -7.546875 21.328125 -8.703125 C 22.472656 -9.867188 23.046875 -11.335938 23.046875 -13.109375 C 23.046875 -14.921875 22.457031 -16.40625 21.28125 -17.5625 C 20.101562 -18.71875 18.660156 -19.296875 16.953125 -19.296875 C 15.210938 -19.296875 13.75 -18.71875 12.5625 -17.5625 Z M 12.5625 -17.5625 "/></g></g></g><g fill="#ffffff" fill-opacity="1"><g transform="translate(182.252505, 198.743541)"><g><path d="M 33.484375 0 L 22.53125 0 L 16.75 -7.421875 L 10.953125 0 L 0 0 L 11.21875 -13.71875 L 1.59375 -26.265625 L 12.1875 -26.265625 L 16.75 -20.171875 L 21.296875 -26.265625 L 31.90625 -26.265625 L 22.265625 -13.71875 Z M 33.484375 0 "/></g></g></g><g fill="#d08989" fill-opacity="1"><g transform="translate(210.928288, 198.743541)"><g><path d="M 3.9375 -40.90625 C 5 -41.96875 6.265625 -42.5 7.734375 -42.5 C 9.203125 -42.5 10.460938 -41.96875 11.515625 -40.90625 C 12.578125 -39.851562 13.109375 -38.59375 13.109375 -37.125 C 13.109375 -35.65625 12.578125 -34.390625 11.515625 -33.328125 C 10.460938 -32.273438 9.203125 -31.75 7.734375 -31.75 C 6.265625 -31.75 5 -32.273438 3.9375 -33.328125 C 2.882812 -34.390625 2.359375 -35.65625 2.359375 -37.125 C 2.359375 -38.59375 2.882812 -39.851562 3.9375 -40.90625 Z M 3.078125 -26.265625 L 3.078125 0 L 12.140625 0 L 12.140625 -26.265625 Z M 3.078125 -26.265625 "/></g></g></g><g fill="#000000" fill-opacity="1"><g transform="translate(221.580627, 198.743541)"><g/></g></g><g fill="#ffffff" fill-opacity="1"><g transform="translate(230.744689, 198.743541)"><g><path d="M 8.90625 -10.953125 C 10.539062 -10.953125 11.929688 -10.378906 13.078125 -9.234375 C 14.222656 -8.097656 14.796875 -6.707031 14.796875 -5.0625 C 14.796875 -3.457031 14.222656 -2.082031 13.078125 -0.9375 C 11.929688 0.195312 10.539062 0.765625 8.90625 0.765625 C 7.300781 0.765625 5.925781 0.195312 4.78125 -0.9375 C 3.644531 -2.082031 3.078125 -3.457031 3.078125 -5.0625 C 3.078125 -6.707031 3.644531 -8.097656 4.78125 -9.234375 C 5.925781 -10.378906 7.300781 -10.953125 8.90625 -10.953125 Z M 8.90625 -10.953125 "/></g></g></g><g fill="#ffffff" fill-opacity="1"><g transform="translate(155.686416, 212.61942)"><g><path d="M 5.53125 -7.21875 C 5.675781 -7.21875 5.796875 -7.175781 5.890625 -7.09375 C 5.984375 -7.007812 6.03125 -6.894531 6.03125 -6.75 C 6.03125 -6.601562 5.984375 -6.488281 5.890625 -6.40625 C 5.796875 -6.320312 5.675781 -6.28125 5.53125 -6.28125 L 3.703125 -6.28125 L 3.703125 -0.5 C 3.703125 -0.351562 3.648438 -0.234375 3.546875 -0.140625 C 3.453125 -0.046875 3.328125 0 3.171875 0 C 3.023438 0 2.898438 -0.046875 2.796875 -0.140625 C 2.703125 -0.234375 2.65625 -0.351562 2.65625 -0.5 L 2.65625 -6.28125 L 0.828125 -6.28125 C 0.679688 -6.28125 0.5625 -6.320312 0.46875 -6.40625 C 0.375 -6.488281 0.328125 -6.601562 0.328125 -6.75 C 0.328125 -6.894531 0.375 -7.007812 0.46875 -7.09375 C 0.5625 -7.175781 0.679688 -7.21875 0.828125 -7.21875 Z M 5.53125 -7.21875 "/></g></g></g><g fill="#ffffff" fill-opacity="1"><g transform="translate(168.762212, 212.61942)"><g><path d="M 5.109375 -5.46875 C 5.253906 -5.46875 5.375 -5.421875 5.46875 -5.328125 C 5.5625 -5.242188 5.609375 -5.125 5.609375 -4.96875 L 5.609375 -0.5 C 5.609375 -0.351562 5.5625 -0.234375 5.46875 -0.140625 C 5.375 -0.046875 5.253906 0 5.109375 0 C 4.972656 0 4.859375 -0.046875 4.765625 -0.140625 C 4.671875 -0.234375 4.625 -0.351562 4.625 -0.5 L 4.625 -0.765625 C 4.445312 -0.523438 4.203125 -0.316406 3.890625 -0.140625 C 3.585938 0.0234375 3.253906 0.109375 2.890625 0.109375 C 2.429688 0.109375 2.007812 -0.0078125 1.625 -0.25 C 1.238281 -0.5 0.9375 -0.835938 0.71875 -1.265625 C 0.507812 -1.691406 0.40625 -2.175781 0.40625 -2.71875 C 0.40625 -3.25 0.507812 -3.726562 0.71875 -4.15625 C 0.9375 -4.59375 1.234375 -4.929688 1.609375 -5.171875 C 1.992188 -5.410156 2.410156 -5.53125 2.859375 -5.53125 C 3.222656 -5.53125 3.5625 -5.453125 3.875 -5.296875 C 4.195312 -5.148438 4.445312 -4.957031 4.625 -4.71875 L 4.625 -4.96875 C 4.625 -5.113281 4.671875 -5.234375 4.765625 -5.328125 C 4.859375 -5.421875 4.972656 -5.46875 5.109375 -5.46875 Z M 3.015625 -0.796875 C 3.335938 -0.796875 3.625 -0.878906 3.875 -1.046875 C 4.125 -1.210938 4.316406 -1.441406 4.453125 -1.734375 C 4.597656 -2.023438 4.671875 -2.351562 4.671875 -2.71875 C 4.671875 -3.070312 4.597656 -3.390625 4.453125 -3.671875 C 4.316406 -3.960938 4.125 -4.191406 3.875 -4.359375 C 3.625 -4.535156 3.335938 -4.625 3.015625 -4.625 C 2.691406 -4.625 2.40625 -4.539062 2.15625 -4.375 C 1.90625 -4.207031 1.707031 -3.976562 1.5625 -3.6875 C 1.414062 -3.40625 1.34375 -3.082031 1.34375 -2.71875 C 1.34375 -2.351562 1.414062 -2.023438 1.5625 -1.734375 C 1.707031 -1.441406 1.90625 -1.210938 2.15625 -1.046875 C 2.40625 -0.878906 2.691406 -0.796875 3.015625 -0.796875 Z M 3.015625 -0.796875 "/></g></g></g><g fill="#ffffff" fill-opacity="1"><g transform="translate(181.807108, 212.61942)"><g><path d="M 4.65625 -0.765625 C 4.738281 -0.679688 4.78125 -0.582031 4.78125 -0.46875 C 4.78125 -0.332031 4.726562 -0.210938 4.625 -0.109375 C 4.519531 -0.015625 4.40625 0.03125 4.28125 0.03125 C 4.125 0.03125 3.988281 -0.0390625 3.875 -0.1875 L 2.5 -1.921875 L 1.140625 -0.1875 C 1.085938 -0.113281 1.023438 -0.0625 0.953125 -0.03125 C 0.890625 0 0.820312 0.015625 0.75 0.015625 C 0.625 0.015625 0.507812 -0.0234375 0.40625 -0.109375 C 0.3125 -0.191406 0.265625 -0.289062 0.265625 -0.40625 C 0.265625 -0.53125 0.300781 -0.632812 0.375 -0.71875 L 1.921875 -2.65625 L 0.34375 -4.65625 C 0.269531 -4.738281 0.234375 -4.832031 0.234375 -4.9375 C 0.234375 -5.070312 0.28125 -5.1875 0.375 -5.28125 C 0.476562 -5.382812 0.597656 -5.4375 0.734375 -5.4375 C 0.898438 -5.4375 1.035156 -5.367188 1.140625 -5.234375 L 2.546875 -3.4375 L 3.875 -5.21875 C 3.976562 -5.363281 4.109375 -5.4375 4.265625 -5.4375 C 4.398438 -5.4375 4.507812 -5.390625 4.59375 -5.296875 C 4.6875 -5.210938 4.734375 -5.113281 4.734375 -5 C 4.734375 -4.875 4.695312 -4.769531 4.625 -4.6875 L 3.09375 -2.75 Z M 4.65625 -0.765625 "/></g></g></g><g fill="#ffffff" fill-opacity="1"><g transform="translate(193.533507, 212.61942)"><g><path d="M 1.65625 -0.5 C 1.65625 -0.351562 1.609375 -0.234375 1.515625 -0.140625 C 1.421875 -0.046875 1.304688 0 1.171875 0 C 1.023438 0 0.90625 -0.046875 0.8125 -0.140625 C 0.726562 -0.234375 0.6875 -0.351562 0.6875 -0.5 L 0.6875 -4.953125 C 0.6875 -5.097656 0.726562 -5.21875 0.8125 -5.3125 C 0.90625 -5.40625 1.023438 -5.453125 1.171875 -5.453125 C 1.304688 -5.453125 1.421875 -5.40625 1.515625 -5.3125 C 1.609375 -5.21875 1.65625 -5.097656 1.65625 -4.953125 Z M 1.15625 -6.140625 C 0.957031 -6.140625 0.816406 -6.175781 0.734375 -6.25 C 0.648438 -6.320312 0.609375 -6.4375 0.609375 -6.59375 L 0.609375 -6.75 C 0.609375 -6.914062 0.65625 -7.03125 0.75 -7.09375 C 0.84375 -7.164062 0.984375 -7.203125 1.171875 -7.203125 C 1.359375 -7.203125 1.492188 -7.164062 1.578125 -7.09375 C 1.671875 -7.019531 1.71875 -6.90625 1.71875 -6.75 L 1.71875 -6.59375 C 1.71875 -6.425781 1.671875 -6.304688 1.578125 -6.234375 C 1.492188 -6.171875 1.351562 -6.140625 1.15625 -6.140625 Z M 1.15625 -6.140625 "/></g></g></g><g fill="#ffffff" fill-opacity="1"><g transform="translate(202.592003, 212.61942)"><g><path d="M 3.046875 -6.75 C 2.816406 -6.75 2.644531 -6.675781 2.53125 -6.53125 C 2.425781 -6.394531 2.375 -6.226562 2.375 -6.03125 L 2.375 -5.3125 L 3.40625 -5.3125 C 3.539062 -5.3125 3.648438 -5.265625 3.734375 -5.171875 C 3.828125 -5.085938 3.875 -4.984375 3.875 -4.859375 C 3.875 -4.722656 3.828125 -4.613281 3.734375 -4.53125 C 3.648438 -4.445312 3.539062 -4.40625 3.40625 -4.40625 L 2.375 -4.40625 L 2.375 -0.5 C 2.375 -0.351562 2.328125 -0.234375 2.234375 -0.140625 C 2.148438 -0.046875 2.035156 0 1.890625 0 C 1.753906 0 1.640625 -0.046875 1.546875 -0.140625 C 1.453125 -0.234375 1.40625 -0.351562 1.40625 -0.5 L 1.40625 -4.40625 L 0.765625 -4.40625 C 0.628906 -4.40625 0.515625 -4.445312 0.421875 -4.53125 C 0.335938 -4.613281 0.296875 -4.722656 0.296875 -4.859375 C 0.296875 -4.984375 0.335938 -5.085938 0.421875 -5.171875 C 0.515625 -5.265625 0.628906 -5.3125 0.765625 -5.3125 L 1.40625 -5.3125 L 1.40625 -6.03125 C 1.40625 -6.507812 1.554688 -6.890625 1.859375 -7.171875 C 2.171875 -7.460938 2.609375 -7.609375 3.171875 -7.609375 C 3.410156 -7.609375 3.617188 -7.566406 3.796875 -7.484375 C 3.972656 -7.398438 4.0625 -7.269531 4.0625 -7.09375 C 4.0625 -6.96875 4.019531 -6.859375 3.9375 -6.765625 C 3.863281 -6.679688 3.769531 -6.640625 3.65625 -6.640625 C 3.632812 -6.640625 3.5625 -6.65625 3.4375 -6.6875 C 3.28125 -6.726562 3.148438 -6.75 3.046875 -6.75 Z M 3.046875 -6.75 "/></g></g></g><g fill="#ffffff" fill-opacity="1"><g transform="translate(213.32953, 212.61942)"><g><path d="M 4.75 -5.453125 C 4.894531 -5.453125 5.015625 -5.40625 5.109375 -5.3125 C 5.203125 -5.21875 5.25 -5.097656 5.25 -4.953125 L 5.25 -0.5 C 5.25 0.351562 5.007812 0.992188 4.53125 1.421875 C 4.0625 1.847656 3.4375 2.0625 2.65625 2.0625 C 2.40625 2.0625 2.15625 2.035156 1.90625 1.984375 C 1.65625 1.941406 1.453125 1.878906 1.296875 1.796875 C 1.046875 1.679688 0.921875 1.519531 0.921875 1.3125 C 0.921875 1.28125 0.925781 1.238281 0.9375 1.1875 C 0.976562 1.070312 1.035156 0.984375 1.109375 0.921875 C 1.191406 0.859375 1.28125 0.828125 1.375 0.828125 C 1.425781 0.828125 1.476562 0.835938 1.53125 0.859375 C 1.738281 0.953125 1.925781 1.023438 2.09375 1.078125 C 2.257812 1.140625 2.453125 1.171875 2.671875 1.171875 C 3.734375 1.171875 4.265625 0.625 4.265625 -0.46875 L 4.265625 -0.6875 C 4.078125 -0.4375 3.835938 -0.238281 3.546875 -0.09375 C 3.253906 0.0390625 2.921875 0.109375 2.546875 0.109375 C 1.972656 0.109375 1.523438 -0.0703125 1.203125 -0.4375 C 0.890625 -0.800781 0.734375 -1.28125 0.734375 -1.875 L 0.734375 -4.953125 C 0.734375 -5.097656 0.773438 -5.21875 0.859375 -5.3125 C 0.953125 -5.40625 1.070312 -5.453125 1.21875 -5.453125 C 1.363281 -5.453125 1.484375 -5.40625 1.578125 -5.3125 C 1.671875 -5.21875 1.71875 -5.097656 1.71875 -4.953125 L 1.71875 -2.140625 C 1.71875 -1.679688 1.816406 -1.34375 2.015625 -1.125 C 2.210938 -0.90625 2.515625 -0.796875 2.921875 -0.796875 C 3.304688 -0.796875 3.625 -0.921875 3.875 -1.171875 C 4.132812 -1.421875 4.265625 -1.742188 4.265625 -2.140625 L 4.265625 -4.953125 C 4.265625 -5.097656 4.304688 -5.21875 4.390625 -5.3125 C 4.484375 -5.40625 4.601562 -5.453125 4.75 -5.453125 Z M 4.75 -5.453125 "/></g></g></g><path stroke-linecap="butt" transform="matrix(0.449298, -0.600526, 0.600526, 0.449298, 197.277647, 173.955867)" fill="none" stroke-linejoin="miter" d="M -0.000236809 2.497485 L 23.45186 2.500938 " stroke="#d08989" stroke-width="5" stroke-opacity="1" stroke-miterlimit="4"/><path stroke-linecap="butt" transform="matrix(0.471335, -0.583389, 0.583389, 0.471335, 179.587097, 201.542917)" fill="none" stroke-linejoin="miter" d="M 0.00138344 0.499079 L 68.499019 0.498747 " stroke="#0097b2" stroke-width="1" stroke-opacity="1" stroke-miterlimit="4"/><path stroke-linecap="butt" transform="matrix(0.0176244, -0.749793, 0.749793, 0.0176244, 186.203431, 200.077369)" fill="none" stroke-linejoin="miter" d="M 0.000318865 0.499723 L 52.134486 0.498569 " stroke="#0097b2" stroke-width="1" stroke-opacity="1" stroke-miterlimit="4"/><path stroke-linecap="butt" transform="matrix(-0.241524, -0.710046, 0.710046, -0.241524, 141.388721, 199.976588)" fill="none" stroke-linejoin="miter" d="M 0.00111979 0.498189 L 64.069731 0.500247 " stroke="#0097b2" stroke-width="1" stroke-opacity="1" stroke-miterlimit="4"/><path stroke-linecap="butt" transform="matrix(0.233534, -0.712714, 0.712714, 0.233534, 141.68497, 199.967214)" fill="none" stroke-linejoin="miter" d="M 0.00315221 0.501271 L 64.155413 0.499494 " stroke="#0097b2" stroke-width="1" stroke-opacity="1" stroke-miterlimit="4"/></svg>